<svg width="16" height="26" viewBox="0 0 16 26" fill="none" xmlns="http://www.w3.org/2000/svg">
<g clip-path="url(#clip0_194_2)">
<path d="M15.53 7.52989C16.155 6.90489 16.155 5.88989 15.53 5.26489C14.905 4.63989 13.89 4.63989 13.265 5.26489L8 10.5349L2.73 5.26989C2.105 4.64489 1.09 4.64489 0.464996 5.26989C-0.160004 5.89489 -0.160004 6.90989 0.464996 7.53489L5.735 12.7999L0.469996 18.0699C-0.155004 18.6949 -0.155004 19.7099 0.469996 20.3349C1.095 20.9599 2.11 20.9599 2.735 20.3349L8 15.0649L13.27 20.3299C13.895 20.9549 14.91 20.9549 15.535 20.3299C16.16 19.7049 16.16 18.6899 15.535 18.0649L10.265 12.7999L15.53 7.52989Z" fill="#C7C7C7"/>
</g>
<defs>
<clipPath id="clip0_194_2">
<rect width="16" height="25.6" fill="white"/>
</clipPath>
</defs>
</svg>
