<svg width="21" height="30" viewBox="0 0 21 30" fill="none" xmlns="http://www.w3.org/2000/svg">
<path fill-rule="evenodd" clip-rule="evenodd" d="M13.5 10.8289C13.5 12.4864 12.1575 13.8289 10.5 13.8289C8.8425 13.8289 7.5 12.4864 7.5 10.8289C7.5 9.17136 8.8425 7.82886 10.5 7.82886C12.1575 7.82886 13.5 9.17136 13.5 10.8289ZM10.5 25.5C10.5 25.5 3 15 3 10.5C3 6.3645 6.3645 3 10.5 3C14.6355 3 18 6.3645 18 10.5C18 15 10.5 25.5 10.5 25.5ZM10.5 0C4.701 0 0 4.701 0 10.5C0 16.299 10.5 30 10.5 30C10.5 30 21 16.299 21 10.5C21 4.701 16.299 0 10.5 0Z" fill="#777777"/>
</svg>
