<svg width="23" height="23" viewBox="0 0 23 23" fill="none" xmlns="http://www.w3.org/2000/svg">
<g clip-path="url(#clip0_1_136)">
<path d="M11.5001 0C5.15892 0 0 5.15892 0 11.5001C0 17.8412 5.15892 23.0002 11.5001 23.0002C17.8412 23.0002 23.0002 17.8412 23.0002 11.5001C23.0002 5.15892 17.8411 0 11.5001 0ZM11.5001 20.578C6.49439 20.578 2.42195 16.5058 2.42195 11.5001C2.42195 6.49439 6.49439 2.42195 11.5001 2.42195C16.5058 2.42195 20.5782 6.49439 20.5782 11.5001C20.5782 16.5058 16.5058 20.578 11.5001 20.578Z" fill="#777777"/>
<path d="M16.2954 11.6277H11.5808V7.54398C11.5808 6.87504 11.0388 6.33301 10.3698 6.33301C9.70089 6.33301 9.15886 6.87504 9.15886 7.54398V12.8387C9.15886 13.5076 9.70089 14.0497 10.3698 14.0497H16.2954C16.9643 14.0497 17.5064 13.5076 17.5064 12.8387C17.5064 12.1698 16.9642 11.6277 16.2954 11.6277Z" fill="#777777"/>
</g>
<defs>
<clipPath id="clip0_1_136">
<rect width="23" height="23" fill="white"/>
</clipPath>
</defs>
</svg>
