<svg width="60" height="60" viewBox="0 0 60 60" fill="none" xmlns="http://www.w3.org/2000/svg">
<path fill-rule="evenodd" clip-rule="evenodd" d="M36 21.6577C36 24.9727 33.315 27.6577 30 27.6577C26.685 27.6577 24 24.9727 24 21.6577C24 18.3427 26.685 15.6577 30 15.6577C33.315 15.6577 36 18.3427 36 21.6577ZM30 51C30 51 15 30 15 21C15 12.729 21.729 6 30 6C38.271 6 45 12.729 45 21C45 30 30 51 30 51ZM30 0C18.402 0 9 9.402 9 21C9 32.598 30 60 30 60C30 60 51 32.598 51 21C51 9.402 41.598 0 30 0Z" fill="#FF1E00"/>
</svg>
